<?xml version="1.0" standalone="no"?>
<!DOCTYPE svg PUBLIC "-//W3C//DTD SVG 20010904//EN"
 "http://www.w3.org/TR/2001/REC-SVG-20010904/DTD/svg10.dtd">
<svg version="1.0" xmlns="http://www.w3.org/2000/svg"
 width="530.000000pt" height="530.000000pt" viewBox="0 0 530.000000 530.000000"
 preserveAspectRatio="xMidYMid meet">
<metadata>
Created by potrace 1.11, written by Peter Selinger 2001-2013
</metadata>
<g transform="translate(0.000000,530.000000) scale(0.100000,-0.100000)"
fill="#000000" stroke="none">
<path d="M2431 5289 c-339 -30 -650 -118 -956 -271 -162 -81 -179 -93 -117
-85 26 3 52 14 63 26 15 16 24 18 48 11 18 -5 33 -4 40 3 6 6 13 8 17 5 3 -3
-8 -14 -25 -24 -16 -10 -27 -22 -24 -27 4 -6 -8 -8 -29 -4 -26 4 -48 -1 -78
-15 -39 -20 -41 -23 -36 -57 3 -20 5 -40 6 -46 0 -5 5 -3 10 5 6 9 10 10 10 3
0 -6 -4 -15 -10 -18 -5 -3 -10 -12 -10 -18 0 -7 4 -6 10 3 8 13 10 13 10 -2 0
-10 11 -25 25 -34 14 -9 23 -19 20 -22 -2 -3 0 -11 6 -19 9 -9 8 -13 0 -13
-16 0 -14 -31 4 -67 19 -39 45 -51 45 -22 0 12 7 42 15 68 8 25 17 64 21 86 5
37 7 38 20 20 11 -15 14 -16 14 -3 0 8 7 21 15 28 13 11 15 3 15 -65 0 -43 -5
-96 -12 -119 -14 -46 -65 -137 -85 -149 -18 -11 -16 -30 2 -23 8 3 15 1 15 -4
0 -6 -4 -10 -10 -10 -5 0 -10 -5 -10 -11 0 -6 9 -8 22 -3 20 6 21 5 6 -10 -9
-9 -24 -16 -32 -16 -22 0 -20 -20 2 -21 13 0 12 -2 -5 -9 -13 -5 -23 -13 -23
-18 0 -14 30 -36 37 -28 4 4 1 11 -7 16 -12 8 -12 10 2 15 10 4 23 3 30 -1 7
-5 21 -7 32 -5 10 1 15 -2 12 -7 -4 -6 -2 -14 4 -17 8 -5 7 -11 -1 -21 -10
-12 -14 -12 -20 -2 -6 9 -9 4 -9 -15 0 -24 2 -26 19 -17 24 12 31 13 31 1 0
-5 -10 -12 -22 -16 l-23 -8 24 -4 c14 -3 34 -17 45 -31 12 -15 29 -34 38 -44
9 -9 14 -19 10 -22 -3 -3 2 -6 11 -6 9 0 17 -4 17 -9 0 -20 29 -18 54 4 30 25
27 45 -5 45 -10 0 -19 5 -19 10 0 17 44 11 70 -10 17 -13 41 -20 75 -20 28 0
70 -9 94 -20 24 -11 49 -20 56 -20 12 0 55 -50 55 -64 0 -3 -15 -6 -32 -6 -25
0 -29 -3 -18 -10 8 -5 26 -10 40 -10 18 0 38 -15 69 -50 24 -27 47 -47 52 -44
5 3 9 1 9 -3 0 -5 9 -14 20 -21 19 -11 20 -10 16 13 -3 14 0 25 5 25 17 0 9
20 -8 21 -14 0 -13 2 5 9 16 7 22 18 22 40 0 18 -5 29 -12 27 -6 -1 -15 14
-19 33 -4 19 -12 36 -18 38 -6 2 -9 8 -5 13 3 5 -9 9 -26 9 -30 0 -30 0 -15
24 15 23 15 27 -7 65 -12 22 -33 43 -45 46 -13 3 -45 19 -73 35 -28 17 -57 30
-65 30 -17 0 -75 54 -75 70 0 5 -4 10 -10 10 -5 0 -10 5 -10 10 0 6 9 10 20
10 11 0 20 5 20 11 0 7 -10 9 -26 5 -17 -5 -23 -3 -19 4 3 5 14 10 23 10 15 1
15 2 -1 11 -18 10 -18 11 0 25 17 14 17 15 -3 9 -15 -4 -24 2 -35 22 -8 16
-20 32 -27 36 -7 5 -9 13 -6 19 5 8 1 9 -10 5 -13 -5 -17 -3 -13 7 4 9 -3 16
-19 20 -13 4 -24 12 -24 20 0 15 -30 17 -31 2 -5 -81 -15 -58 -15 38 0 74 3
91 13 81 6 -7 15 -25 19 -40 4 -14 13 -29 20 -32 8 -3 14 -12 14 -20 0 -8 4
-12 9 -9 4 3 21 -10 37 -29 16 -19 33 -35 37 -35 12 0 37 -26 37 -38 0 -6 -6
-13 -12 -16 -7 -3 0 -4 16 -2 17 2 36 -2 44 -10 10 -10 18 -12 26 -5 15 12 60
-15 51 -30 -4 -5 0 -9 7 -9 9 0 9 -3 -2 -10 -11 -8 -7 -9 15 -4 17 4 36 14 42
23 11 14 13 13 19 -6 5 -19 13 -23 50 -23 24 0 44 -4 44 -9 0 -5 -19 -7 -42
-5 -48 5 -43 0 20 -16 25 -6 42 -17 42 -25 0 -12 4 -12 18 3 14 13 17 24 10
52 -10 48 -10 50 7 50 8 0 15 -5 15 -11 0 -5 5 -7 10 -4 6 3 10 1 10 -4 0 -6
5 -11 10 -11 6 0 10 7 10 15 0 8 -8 15 -17 15 -14 0 -15 2 -4 9 10 6 10 13 3
28 -7 12 -7 25 -1 34 7 11 9 10 10 -6 1 -16 2 -16 8 5 4 14 13 24 19 22 7 -1
12 1 12 5 0 10 68 8 78 -1 4 -4 0 -13 -9 -20 -14 -10 -11 -11 21 -11 45 0 97
-24 78 -37 -10 -6 -9 -8 2 -8 8 0 25 9 38 18 21 16 22 20 8 31 -13 11 -19 11
-31 1 -13 -11 -14 -10 -8 5 5 14 3 17 -10 12 -9 -3 -17 -2 -17 3 0 6 7 10 16
10 14 0 14 3 4 16 -11 12 -10 18 5 32 13 13 19 14 22 5 7 -20 29 -15 40 9 5
12 20 22 34 24 13 1 35 5 48 10 19 6 23 4 17 -7 -5 -9 -3 -8 6 2 15 17 48 32
48 21 -1 -16 -29 -42 -46 -42 -18 -1 -18 -1 -2 -11 16 -9 16 -12 3 -32 -8 -12
-15 -26 -16 -32 -6 -31 -35 -74 -53 -79 -16 -4 -18 -8 -9 -17 9 -9 18 -8 36 4
26 17 39 14 31 -8 -3 -7 -1 -16 5 -20 7 -3 8 0 5 9 -4 10 -1 16 9 16 9 0 19 5
23 11 4 8 -1 9 -17 5 -23 -7 -23 -7 -5 8 26 21 36 20 36 -2 0 -10 6 -24 13
-31 10 -10 7 -11 -15 -6 -22 6 -28 4 -28 -9 0 -9 -4 -16 -10 -16 -5 0 -10 -5
-10 -11 0 -7 15 -10 40 -7 22 2 36 0 32 -4 -4 -3 -22 -8 -40 -10 l-33 -3 31
-33 c16 -18 30 -30 30 -26 0 3 7 1 15 -6 13 -11 14 -10 9 5 -4 10 -1 21 7 26
8 4 14 16 14 26 1 10 7 17 15 15 11 -3 11 0 -1 15 -8 10 -21 24 -29 31 -8 8
-10 11 -5 9 6 -3 15 1 22 8 10 10 9 14 -3 19 -24 9 -31 7 -14 -4 12 -8 11 -10
-7 -10 -13 0 -23 6 -23 14 0 8 -2 21 -5 28 -4 9 2 14 14 14 11 0 17 -5 14 -11
-3 -5 8 4 24 20 17 17 34 41 38 54 7 24 8 24 22 5 10 -12 17 -15 20 -7 8 22
45 -27 40 -53 -3 -19 0 -24 16 -24 15 0 17 -3 8 -13 -6 -8 -9 -17 -6 -20 3 -4
2 -5 -2 -2 -3 3 -14 -8 -24 -25 -14 -22 -16 -36 -9 -52 5 -13 9 -17 9 -9 1 8
3 12 5 10 3 -3 1 -21 -4 -42 -4 -20 -5 -39 0 -42 4 -2 22 9 40 25 23 21 31 35
27 50 -3 11 -1 20 4 20 5 0 9 -8 9 -17 0 -11 22 7 60 47 33 35 60 66 60 70 0
3 -9 11 -19 17 -16 10 -28 9 -66 -8 -26 -11 -49 -18 -52 -15 -3 3 3 9 13 13
10 3 21 9 24 13 3 3 16 14 30 23 13 9 18 17 11 17 -11 0 -11 3 -1 15 10 12 10
15 -1 15 -8 0 -2 8 14 18 15 9 27 23 28 32 0 8 5 4 11 -10 l10 -25 11 25 c8
21 11 22 14 8 5 -21 19 -24 26 -5 3 6 6 -9 6 -35 1 -27 6 -48 12 -48 5 0 7 -5
4 -10 -4 -6 -11 -8 -16 -5 -5 4 -9 -1 -9 -9 0 -9 -7 -16 -15 -16 -22 0 -18
-18 5 -25 17 -5 18 -10 9 -27 -8 -16 -8 -19 1 -13 9 5 10 1 5 -16 -7 -22 -6
-23 9 -10 16 13 17 12 11 -12 -7 -27 9 -40 18 -14 3 9 7 9 19 -1 13 -10 17
-10 22 3 3 8 15 15 26 15 12 0 18 -4 15 -10 -3 -5 -2 -10 4 -10 6 0 14 15 19
33 5 17 14 31 20 30 5 -1 8 7 4 19 -4 15 -2 19 7 14 15 -10 11 25 -4 36 -14
11 6 10 23 0 10 -7 10 -15 2 -38 -6 -16 -8 -25 -4 -21 4 3 13 -1 21 -11 12
-15 13 -13 8 18 -3 24 -2 29 4 15 4 -11 12 -20 17 -20 5 0 14 -4 21 -8 6 -4
14 -3 18 3 3 5 -1 10 -9 10 -9 0 -16 5 -16 10 0 6 5 10 11 10 15 0 51 41 43
49 -3 3 -11 -2 -18 -12 -16 -21 -40 -23 -32 -1 3 9 6 18 6 20 0 2 9 4 21 4 11
0 17 4 14 10 -3 5 0 7 9 4 13 -5 13 0 5 33 -14 54 -19 63 -16 26 2 -19 -2 -34
-9 -37 -17 -7 -26 5 -14 19 5 6 11 26 12 44 2 25 -2 36 -17 45 -11 6 -22 12
-25 14 -2 2 2 8 10 13 11 8 12 12 3 16 -24 9 -13 20 22 21 19 1 37 -3 40 -8 3
-6 11 -10 16 -10 6 0 7 5 3 12 -5 7 -3 8 7 2 18 -11 52 -6 61 10 6 8 8 8 8 -1
0 -7 5 -13 11 -13 5 0 7 5 3 11 -3 6 1 10 12 9 31 -4 37 -1 26 13 -8 10 -6 16
9 25 12 8 19 9 19 1 0 -5 5 -7 10 -4 6 4 8 11 5 16 -4 5 0 9 8 9 8 0 22 9 32
20 10 11 24 20 31 20 7 0 14 10 16 23 2 12 10 22 18 22 8 0 13 -7 11 -15 -13
-47 -12 -70 0 -70 12 0 12 -2 0 -9 -10 -7 -10 -10 -1 -16 7 -4 16 -1 21 6 6 9
9 10 9 2 0 -6 -7 -18 -15 -27 -8 -8 -15 -21 -15 -28 0 -11 2 -11 9 0 11 18 21
-7 21 -52 0 -36 -20 -43 -54 -20 -15 10 -24 9 -52 -7 -19 -10 -41 -19 -48 -19
-8 0 -16 -5 -18 -11 -2 -5 -12 -12 -23 -13 -14 -2 -19 -10 -18 -25 2 -16 -2
-21 -20 -20 -17 1 -18 2 -5 6 16 4 16 6 3 20 -12 11 -13 19 -5 28 6 7 9 19 8
26 -2 9 5 13 17 12 11 -1 14 0 7 3 -10 5 -10 9 -2 20 13 15 4 38 -11 28 -5 -3
-7 -9 -4 -14 3 -4 -2 -13 -10 -20 -8 -7 -15 -19 -15 -27 0 -8 -4 -11 -10 -8
-5 3 -10 -3 -10 -14 0 -12 5 -21 10 -21 6 0 10 -4 10 -10 0 -5 -5 -10 -11 -10
-7 0 -17 -8 -24 -17 -11 -15 -15 -16 -31 -3 -16 14 -17 13 -11 -12 4 -15 3
-38 -3 -53 -14 -37 7 -57 50 -49 28 6 31 10 25 32 -6 25 -6 25 20 8 40 -26 64
-17 91 34 23 44 38 51 40 20 0 -8 -3 -23 -8 -32 -7 -15 -4 -18 22 -18 27 0 29
-2 18 -19 -9 -15 -16 -17 -25 -9 -9 7 -14 6 -19 -6 -4 -11 1 -22 12 -31 21
-15 19 -19 -14 -29 -15 -5 -24 -3 -28 8 -8 20 -24 21 -24 1 0 -8 -9 -15 -19
-15 -11 0 -23 -4 -26 -10 -4 -6 5 -10 19 -10 14 0 26 -4 26 -10 0 -5 -10 -10
-22 -10 -22 -1 -22 -1 -5 -14 12 -9 14 -16 8 -21 -18 -11 -12 -32 9 -30 11 1
23 4 26 8 4 4 25 4 47 0 29 -4 38 -3 33 5 -5 8 0 12 13 12 23 0 28 -19 10 -37
-7 -7 -4 -12 10 -16 12 -3 19 -1 16 3 -3 4 6 3 20 -3 13 -7 19 -14 12 -16 -7
-2 -20 -12 -30 -23 -16 -17 -20 -26 -26 -58 -1 -3 -6 2 -12 10 -8 12 -9 10 -4
-7 4 -16 2 -23 -7 -23 -10 0 -11 -2 0 -8 7 -5 10 -16 6 -25 -7 -20 -1 -21 27
-6 20 10 20 10 4 -15 -17 -26 -45 -35 -45 -16 0 6 -5 10 -11 10 -5 0 -7 -5 -4
-11 4 -6 0 -9 -10 -7 -11 2 -21 -6 -26 -19 -5 -15 -5 -23 2 -23 6 0 9 -7 5
-15 -3 -8 -1 -15 4 -15 5 0 11 8 13 18 4 16 5 16 6 0 0 -10 6 -18 12 -18 6 0
9 7 5 15 -3 8 -1 15 4 15 6 0 10 -4 10 -8 0 -4 9 -8 19 -8 11 0 18 4 15 7 -2
4 0 10 6 14 5 3 10 -1 10 -9 0 -9 8 -16 18 -16 16 -1 16 -1 -1 -11 -9 -5 -21
-8 -26 -4 -5 3 -12 1 -16 -5 -6 -10 6 -14 37 -11 10 1 26 -2 35 -8 16 -9 16
-10 2 -11 -22 0 -48 -30 -27 -30 8 0 19 5 25 11 8 8 13 5 18 -11 4 -12 3 -26
-2 -31 -18 -18 -229 -16 -217 2 11 19 -157 -75 -192 -107 -19 -17 -35 -29 -37
-27 -3 2 -10 -10 -16 -26 -10 -24 -10 -33 2 -53 26 -41 29 -65 11 -105 -9 -21
-16 -44 -15 -51 1 -7 -7 -25 -18 -41 -11 -15 -18 -31 -15 -34 4 -3 -3 -5 -15
-4 -11 1 -21 8 -21 15 0 12 -3 12 -17 1 -15 -12 -16 -12 -9 6 4 11 11 44 15
73 6 43 5 52 -8 52 -12 0 -12 3 -3 12 7 7 12 17 12 23 0 5 -7 2 -15 -9 -8 -11
-19 -15 -27 -10 -10 6 -10 5 0 -9 15 -18 8 -37 -14 -37 -8 0 -14 -6 -14 -12 0
-8 -3 -9 -8 -3 -4 6 -13 11 -21 13 -12 3 -12 0 -2 -12 7 -8 14 -34 15 -56 1
-23 9 -49 17 -58 27 -32 100 -187 106 -226 8 -50 36 -78 79 -80 31 -1 34 1 32
24 -3 20 3 27 32 36 19 6 42 24 51 38 9 15 31 41 48 58 17 17 31 34 31 39 0 4
8 10 18 14 9 3 39 26 66 51 45 41 48 48 37 66 -11 18 -10 19 16 14 22 -5 31
-2 43 16 8 12 24 31 35 43 11 12 19 28 17 36 -2 9 5 22 14 30 16 12 17 12 11
-4 -4 -11 -3 -16 3 -12 6 4 10 12 9 18 -3 25 1 38 11 32 6 -3 10 -2 10 4 0 5
8 8 18 6 15 -3 18 2 14 21 -3 15 0 24 8 24 7 0 10 -7 6 -16 -5 -14 -4 -15 9
-4 8 7 15 19 15 27 0 9 6 13 15 9 8 -3 21 4 30 17 14 19 15 20 15 3 0 -19 0
-19 21 0 11 10 35 23 52 29 25 8 32 16 32 35 0 15 7 26 18 28 9 2 17 7 17 12
0 14 -42 40 -54 34 -6 -3 -3 1 7 9 9 8 17 22 17 31 0 9 11 28 25 42 18 18 31
23 50 18 31 -8 58 12 50 36 -4 11 3 25 17 37 13 10 31 32 40 48 9 16 30 34 46
40 37 13 83 58 55 54 -20 -3 -34 2 -28 11 3 6 -1 10 -9 10 -9 0 -16 -8 -16
-17 0 -11 -7 -5 -16 14 -15 29 -12 75 3 60 3 -4 15 5 25 19 20 24 20 25 2 40
-14 10 -15 13 -3 9 9 -3 22 1 29 10 7 8 19 15 26 15 8 0 14 2 14 4 0 2 3 11 6
20 4 10 1 16 -9 16 -9 0 -15 8 -14 19 0 11 5 17 9 15 5 -3 6 -11 2 -17 -3 -7
2 -3 11 8 12 14 16 16 15 5 -4 -29 0 -40 14 -40 8 0 17 6 19 13 3 6 6 -1 6
-18 1 -23 4 -26 13 -17 7 7 13 20 13 29 0 9 6 18 13 21 16 5 6 -59 -11 -70 -8
-5 -4 -8 10 -8 16 0 21 -6 20 -20 -1 -11 -7 -20 -15 -20 -7 0 -10 -5 -7 -11 4
-6 -2 -13 -14 -16 -12 -3 -21 -9 -21 -14 0 -12 7 -11 32 2 33 18 44 -5 13 -29
-15 -12 -24 -26 -20 -32 4 -7 1 -10 -6 -8 -8 1 -26 -9 -40 -24 -32 -32 -43
-74 -20 -83 8 -3 17 -1 19 4 2 6 8 11 14 11 5 0 23 9 39 21 39 28 37 8 -7 -49
-19 -26 -38 -59 -41 -75 -3 -15 -10 -30 -14 -33 -5 -3 -9 -13 -9 -23 0 -27
-91 -97 -114 -88 -8 3 -18 1 -24 -5 -8 -8 -15 -8 -26 1 -12 10 -16 9 -24 -5
-7 -13 -5 -22 9 -33 22 -18 42 -78 29 -86 -4 -3 -10 2 -14 10 -9 25 -27 17
-20 -9 3 -13 1 -27 -5 -31 -6 -3 -9 -11 -5 -16 3 -6 -4 -20 -16 -31 -12 -11
-19 -26 -16 -33 3 -8 -7 -21 -20 -30 -15 -9 -23 -22 -20 -30 6 -18 -18 -67
-28 -57 -4 4 -14 -2 -22 -12 -8 -11 -14 -16 -14 -11 0 4 -9 0 -19 -9 -11 -10
-17 -25 -14 -37 3 -11 0 -19 -6 -19 -7 0 -9 -5 -6 -10 4 -6 11 -8 16 -5 16 11
10 -25 -8 -45 -16 -17 -30 -41 -79 -143 -8 -16 -14 -35 -14 -43 0 -8 -9 -24
-20 -36 -11 -12 -20 -27 -20 -34 0 -7 -11 -33 -24 -58 -27 -51 -43 -136 -26
-136 6 0 9 4 6 9 -3 5 1 14 9 21 12 10 15 9 15 -4 0 -9 6 -16 14 -16 7 0 27
-7 42 -15 16 -8 36 -15 44 -14 10 0 11 2 3 6 -8 3 -4 13 12 31 27 29 30 38 15
47 -18 11 -10 27 11 22 15 -4 19 -2 15 9 -3 9 1 14 12 14 10 0 23 5 28 10 17
17 86 50 95 44 4 -2 1 -21 -8 -41 -17 -42 -21 -69 -25 -165 -2 -37 -6 -68 -10
-68 -4 0 1 -17 11 -37 11 -21 25 -64 32 -95 10 -49 14 -55 24 -41 7 9 17 13
25 8 9 -6 10 -1 5 16 -4 17 -3 20 3 10 10 -14 32 -7 32 10 0 6 16 25 35 44
l35 33 15 -27 c12 -22 14 -23 15 -6 0 17 2 17 10 5 8 -12 10 -11 10 6 0 27 10
36 25 24 8 -6 18 -5 31 5 11 8 14 15 7 15 -7 0 -13 4 -13 9 0 4 11 7 25 6 16
-2 25 2 25 11 0 8 6 11 15 8 8 -4 15 -1 15 5 0 6 3 10 8 9 10 -3 85 23 99 34
9 7 9 3 1 -20 -7 -18 -17 -28 -25 -25 -7 3 -13 -1 -14 -8 -2 -44 -7 -62 -17
-68 -6 -3 -10 -25 -9 -49 2 -46 18 -54 58 -29 17 10 22 9 39 -13 11 -14 17
-32 14 -40 -3 -8 -8 -32 -10 -53 -2 -21 -9 -47 -15 -59 -6 -12 -17 -48 -24
-81 -11 -52 -10 -64 4 -89 9 -15 24 -28 34 -28 11 0 17 -8 17 -22 1 -20 2 -21
10 -6 14 24 90 38 83 16 -6 -17 16 -7 31 14 12 16 18 19 22 10 3 -7 14 -17 25
-22 18 -10 19 -7 19 39 0 31 -6 55 -15 65 -19 18 -19 26 -1 26 17 0 26 -31 26
-89 0 -33 3 -42 14 -38 8 3 17 1 20 -6 2 -7 5 -4 5 6 1 9 -3 17 -9 17 -5 0
-10 10 -10 23 0 18 2 19 10 7 9 -13 11 -13 21 0 8 12 9 10 4 -7 -4 -16 -2 -23
8 -23 9 0 14 11 15 31 0 17 6 37 13 45 10 12 14 11 29 -6 10 -11 23 -20 29
-20 20 0 -6 -37 -39 -57 -21 -12 -26 -19 -17 -25 9 -6 9 -8 -1 -8 -8 0 -10 -5
-6 -12 13 -20 12 -47 -2 -52 -14 -5 -12 -49 4 -87 11 -27 55 -49 45 -23 -3 9
1 14 12 14 9 0 13 5 10 10 -9 14 17 70 32 70 16 0 17 -12 2 -27 -6 -6 -13 -24
-15 -42 -5 -27 -2 -31 16 -31 13 0 20 -5 17 -12 -2 -7 -16 -13 -31 -12 -24 0
-26 -3 -21 -24 7 -29 43 -79 62 -86 10 -4 11 -1 3 14 -14 26 -13 40 3 40 7 0
19 -16 27 -35 8 -19 18 -35 23 -35 5 0 7 -9 4 -20 -3 -11 -1 -22 3 -25 5 -3
13 16 18 42 8 35 8 50 -1 55 -8 5 -7 8 4 8 22 0 47 129 27 142 -10 7 -9 11 5
22 43 33 68 515 38 751 -52 412 -196 809 -413 1136 -88 134 -204 284 -226 293
-7 3 -10 1 -7 -4 10 -17 -12 -11 -26 7 -12 13 -12 17 -1 21 10 3 8 10 -8 27
-13 14 -28 21 -38 18 -11 -5 -14 -2 -9 10 16 41 -294 304 -528 447 -102 63
-325 172 -435 213 -381 142 -781 200 -1159 166z m-495 -254 c14 -13 14 -17 -1
-31 -15 -15 -17 -15 -29 2 -10 13 -11 21 -2 30 14 17 15 17 32 -1z m1829 -45
c4 -6 -5 -10 -19 -10 -14 0 -26 5 -26 10 0 6 9 10 19 10 11 0 23 -4 26 -10z
m-921 -37 c9 -22 -10 -41 -25 -26 -13 13 -5 43 10 43 5 0 12 -8 15 -17z m973
-30 c-3 -10 -5 -4 -5 12 0 17 2 24 5 18 2 -7 2 -21 0 -30z m-247 -43 c0 -5 -4
-10 -10 -10 -5 0 -10 5 -10 10 0 6 5 10 10 10 6 0 10 -4 10 -10z m-504 -15
c-23 -18 -36 -19 -36 -4 0 5 4 8 9 4 5 -3 12 -1 16 5 3 5 12 10 18 10 7 0 3
-7 -7 -15z m776 -35 c4 0 8 -4 8 -10 0 -5 -7 -10 -15 -10 -8 0 -15 6 -15 13 0
6 -2 23 -5 37 -4 24 -4 24 7 -2 7 -16 15 -28 20 -28z m-2482 36 c0 -3 -4 -8
-10 -11 -5 -3 -10 -1 -10 4 0 6 5 11 10 11 6 0 10 -2 10 -4z m465 -103 c14
-21 25 -42 25 -47 0 -12 -44 34 -59 62 -19 37 6 26 34 -15z m-46 -16 c0 -21
-1 -21 -9 -2 -12 28 -12 37 0 30 6 -3 10 -16 9 -28z m1123 11 c-7 -7 -12 -8
-12 -2 0 6 3 14 7 17 3 4 9 5 12 2 2 -3 -1 -11 -7 -17z m-267 -8 c3 -5 1 -10
-4 -10 -6 0 -11 5 -11 10 0 6 2 10 4 10 3 0 8 -4 11 -10z m745 -40 c7 -17 10
-33 6 -37 -3 -3 -6 1 -6 10 0 9 -5 19 -10 22 -7 4 -8 -3 -4 -21 6 -24 5 -26
-7 -14 -8 7 -16 26 -17 42 -3 38 22 37 38 -2z m-1570 10 c0 -5 -2 -10 -4 -10
-3 0 -8 5 -11 10 -3 6 -1 10 4 10 6 0 11 -4 11 -10z m640 -10 c0 -5 -2 -10 -4
-10 -3 0 -8 5 -11 10 -3 6 -1 10 4 10 6 0 11 -4 11 -10z m1246 -17 c-10 -10
-19 5 -10 18 6 11 8 11 12 0 2 -7 1 -15 -2 -18z m-1956 7 c0 -5 -5 -10 -11
-10 -5 0 -7 5 -4 10 3 6 8 10 11 10 2 0 4 -4 4 -10z m2145 -28 c3 -17 -1 -21
-18 -19 -12 1 -25 7 -29 12 -5 6 -8 5 -8 -2 0 -7 -7 -13 -16 -13 -14 0 -14 3
-4 15 8 10 21 13 33 9 15 -5 19 -3 14 9 -3 8 -3 18 1 21 8 9 22 -7 27 -32z
m-1405 8 c0 -5 -4 -10 -10 -10 -5 0 -10 5 -10 10 0 6 5 10 10 10 6 0 10 -4 10
-10z m-655 -13 c11 -7 21 -19 23 -27 2 -13 0 -13 -10 1 -7 8 -22 21 -33 27
-11 6 -15 11 -10 11 6 0 19 -5 30 -12z m622 -13 c-9 -9 -28 6 -21 18 4 6 10 6
17 -1 6 -6 8 -13 4 -17z m-522 -4 c3 -6 -1 -7 -9 -4 -18 7 -21 14 -7 14 6 0
13 -4 16 -10z m1438 -26 c-7 -20 -10 -18 -15 11 -4 20 -2 23 8 14 7 -6 10 -17
7 -25z m-1476 20 c-3 -3 -12 -4 -19 -1 -8 3 -5 6 6 6 11 1 17 -2 13 -5z m527
-6 c-7 -11 -32 -10 -39 2 -3 6 4 9 19 8 13 -1 22 -6 20 -10z m456 2 c0 -5 -2
-10 -4 -10 -3 0 -8 5 -11 10 -3 6 -1 10 4 10 6 0 11 -4 11 -10z m990 -9 c0
-13 -16 -29 -35 -34 -22 -7 -58 11 -39 19 6 3 19 11 30 18 17 13 44 11 44 -3z
m-1900 -13 c25 15 27 4 3 -14 -19 -13 -43 -2 -43 20 0 6 5 4 10 -4 8 -12 13
-13 30 -2z m2323 -20 c-3 -15 -9 -25 -14 -22 -5 3 -9 -4 -9 -16 0 -12 -4 -18
-10 -15 -5 3 -10 1 -10 -6 0 -7 -3 -9 -6 -6 -4 4 -2 12 4 19 5 7 12 24 14 38
2 14 9 24 16 23 6 -2 12 2 12 9 0 6 2 9 4 7 2 -2 2 -16 -1 -31z m-956 0 c-3
-8 -6 -5 -6 6 -1 11 2 17 5 13 3 -3 4 -12 1 -19z m465 -10 c15 -11 15 -15 2
-26 -11 -11 -14 -10 -14 3 0 8 -4 15 -10 15 -5 0 -10 5 -10 10 0 14 13 13 32
-2z m-1797 -18 c10 -11 25 -20 34 -21 10 0 11 -2 4 -5 -8 -4 -10 -16 -6 -36 5
-23 3 -29 -6 -24 -7 5 -10 15 -7 23 4 11 1 13 -14 8 -17 -5 -20 -2 -20 22 0
16 -5 34 -12 41 -7 7 -8 12 -2 12 6 0 19 -9 29 -20z m1722 14 c-3 -3 -12 -4
-19 -1 -8 3 -5 6 6 6 11 1 17 -2 13 -5z m-347 -33 c0 -6 -4 -13 -10 -16 -5 -3
-10 1 -10 9 0 9 5 16 10 16 6 0 10 -4 10 -9z m-1714 -27 c-4 -15 -2 -32 5 -40
14 -17 12 -19 -26 -28 -16 -4 -25 -3 -20 1 6 4 17 27 23 51 14 45 29 59 18 16z
m2828 -31 c4 -10 4 -14 0 -10 -4 4 -14 1 -22 -6 -13 -10 -14 -9 -3 11 14 27
17 27 25 5z m-580 -34 c-3 -5 -10 -7 -15 -3 -5 3 -7 10 -3 15 3 5 10 7 15 3 5
-3 7 -10 3 -15z m-1034 7 c0 -3 -4 -8 -10 -11 -5 -3 -10 -1 -10 4 0 6 5 11 10
11 6 0 10 -2 10 -4z m1526 -10 c20 -21 17 -28 -6 -14 -11 7 -20 16 -20 20 0
12 10 9 26 -6z m-640 -46 c22 -24 23 -40 3 -40 -6 0 -8 3 -6 8 3 4 -5 16 -16
27 -11 11 -17 14 -13 7 6 -10 -8 -12 -42 -3 -1 1 3 7 10 15 18 19 39 15 64
-14z m379 20 c3 -5 1 -10 -4 -10 -6 0 -11 5 -11 10 0 6 2 10 4 10 3 0 8 -4 11
-10z m-1420 -10 c3 -5 1 -10 -5 -10 -6 0 -8 -4 -5 -10 3 -6 -1 -7 -9 -4 -17 7
-20 16 -9 27 9 10 21 9 28 -3z m1085 0 c0 -5 -4 -10 -9 -10 -6 0 -13 5 -16 10
-3 6 1 10 9 10 9 0 16 -4 16 -10z m-2140 -43 c0 -5 -7 -2 -15 7 -8 8 -15 20
-15 27 0 14 29 -20 30 -34z m2430 28 c0 -8 -7 -15 -15 -15 -13 0 -14 3 -3 15
16 18 18 18 18 0z m180 5 c0 -5 -5 -10 -11 -10 -5 0 -7 5 -4 10 3 6 8 10 11
10 2 0 4 -4 4 -10z m-2650 -51 c0 -5 -9 -9 -20 -9 -13 0 -20 7 -20 20 0 11 -7
20 -16 20 -8 0 -12 5 -9 10 7 11 65 -25 65 -41z m2205 31 c-28 -12 -37 -12
-30 0 3 6 16 10 28 9 21 0 21 -1 2 -9z m784 -35 c2 -19 -48 -13 -55 7 -3 11
-3 22 0 25 3 4 6 -1 6 -9 0 -9 7 -18 15 -22 8 -3 15 -1 15 3 0 5 -5 11 -12 13
-6 2 -8 10 -4 17 6 9 11 8 21 -6 7 -10 13 -22 14 -28z m-3049 21 c0 -3 -4 -8
-10 -11 -5 -3 -10 -1 -10 4 0 6 5 11 10 11 6 0 10 -2 10 -4z m2273 -13 c-7 -2
-19 -2 -25 0 -7 3 -2 5 12 5 14 0 19 -2 13 -5z m-43 -13 c0 -5 -7 -10 -16 -10
-8 0 -12 5 -9 10 3 6 10 10 16 10 5 0 9 -4 9 -10z m-30 -84 c0 -3 -4 -8 -10
-11 -5 -3 -10 -1 -10 4 0 6 5 11 10 11 6 0 10 -2 10 -4z m-5 -115 c3 -5 1 -12
-5 -16 -5 -3 -10 1 -10 9 0 18 6 21 15 7z m450 -91 c3 -5 -1 -10 -10 -10 -9 0
-13 5 -10 10 3 6 8 10 10 10 2 0 7 -4 10 -10z m-632 -242 c3 -10 7 -10 20 1
14 11 18 10 28 -13 10 -22 9 -33 -4 -62 -10 -19 -15 -40 -11 -45 3 -5 2 -9 -3
-8 -4 1 -17 1 -28 0 -14 -1 -16 -4 -8 -9 21 -13 -38 -28 -87 -21 -25 3 -41 7
-36 7 5 1 1 11 -9 22 -16 18 -16 20 -2 26 13 4 14 10 7 24 -15 27 -12 32 9 20
46 -24 101 1 101 47 0 24 15 32 23 11z m805 -103 c-7 -7 -12 -6 -15 3 -3 6
-14 12 -26 12 -16 0 -18 3 -9 9 19 11 65 -10 50 -24z m-652 -32 c11 -4 11 -7
-1 -19 -7 -8 -18 -14 -23 -14 -13 0 -24 -29 -15 -43 3 -7 3 -9 -2 -5 -10 10
-37 -11 -29 -23 3 -5 -1 -9 -10 -9 -8 0 -23 -3 -33 -6 -15 -5 -16 -4 -3 6 12
10 11 11 -10 6 -14 -3 -28 -6 -32 -6 -4 0 -5 -7 -2 -15 4 -10 -4 -19 -22 -26
-16 -7 -32 -12 -36 -11 -5 1 -9 -10 -9 -25 -1 -17 -3 -21 -6 -10 -5 21 -23 23
-23 2 0 -19 -10 -19 -37 3 -27 22 -21 68 11 78 11 4 33 15 49 26 15 11 27 16
27 11 0 -4 5 0 11 10 5 9 19 17 30 17 11 0 17 5 14 10 -3 6 2 13 12 16 42 13
93 38 88 42 -2 3 3 11 13 18 15 11 17 10 20 -7 2 -11 10 -23 18 -26z m-38
-168 c-3 -3 -9 2 -12 12 -6 14 -5 15 5 6 7 -7 10 -15 7 -18z m-253 -45 c-3 -5
-11 -10 -16 -10 -6 0 -7 5 -4 10 3 6 11 10 16 10 6 0 7 -4 4 -10z m-35 -65 c0
-8 -7 -15 -15 -15 -8 0 -15 7 -15 15 0 8 7 15 15 15 8 0 15 -7 15 -15z m1070
-545 c0 -5 -7 -10 -16 -10 -8 0 -12 5 -9 10 3 6 10 10 16 10 5 0 9 -4 9 -10z
m-120 -49 c0 -5 -7 -11 -14 -14 -10 -4 -13 -1 -9 9 6 15 23 19 23 5z m-90 -31
c0 -5 -5 -10 -11 -10 -5 0 -7 5 -4 10 3 6 8 10 11 10 2 0 4 -4 4 -10z m54 -5
c3 -8 1 -15 -4 -15 -6 0 -10 7 -10 15 0 8 2 15 4 15 2 0 6 -7 10 -15z m681
-261 c16 -24 16 -28 1 -42 -15 -15 -17 -15 -32 0 -11 11 -14 25 -10 42 8 33
19 33 41 0z m185 -254 c0 -5 -4 -10 -10 -10 -5 0 -10 5 -10 10 0 6 5 10 10 10
6 0 10 -4 10 -10z m-170 -30 c0 -5 -5 -10 -11 -10 -5 0 -7 5 -4 10 3 6 8 10
11 10 2 0 4 -4 4 -10z m130 -41 c0 -5 -4 -9 -10 -9 -5 0 -10 7 -10 16 0 8 5
12 10 9 6 -3 10 -10 10 -16z"/>
<path d="M3590 4792 c-7 -3 -6 -9 2 -20 10 -12 10 -16 1 -19 -7 -3 -13 -9 -13
-14 0 -14 37 -11 52 4 7 8 20 16 28 20 12 4 11 6 -2 6 -21 1 -24 17 -5 24 14
5 -47 4 -63 -1z m37 -34 c-6 -4 -15 -2 -19 5 -14 21 -9 28 12 15 13 -9 16 -14
7 -20z"/>
<path d="M3448 4763 c7 -3 16 -2 19 1 4 3 -2 6 -13 5 -11 0 -14 -3 -6 -6z"/>
<path d="M3480 4750 c0 -5 -8 -10 -17 -10 -14 0 -15 -2 -4 -12 11 -10 14 -10
18 0 3 6 11 12 18 12 8 0 17 5 20 10 3 6 -3 10 -14 10 -12 0 -21 -4 -21 -10z"/>
<path d="M1691 4694 c0 -11 3 -14 6 -6 3 7 2 16 -1 19 -3 4 -6 -2 -5 -13z"/>
<path d="M3430 4693 c0 -13 8 -24 21 -28 29 -10 30 -4 3 25 -24 24 -24 24 -24
3z"/>
<path d="M3030 4650 c-13 -8 -12 -10 3 -10 9 0 17 5 17 10 0 12 -1 12 -20 0z"/>
<path d="M2489 4621 c13 -23 26 -27 36 -10 8 13 6 15 -23 24 -22 6 -23 5 -13
-14z"/>
<path d="M1346 4572 c-4 -7 -2 -12 4 -12 6 0 8 -5 5 -10 -4 -6 -11 -7 -17 -4
-17 11 8 -29 32 -51 21 -19 21 -19 43 6 30 34 30 44 1 58 -15 6 -23 7 -19 1
10 -17 -17 -11 -30 7 -8 11 -14 13 -19 5z m24 -42 c0 -5 -5 -10 -11 -10 -5 0
-7 5 -4 10 3 6 8 10 11 10 2 0 4 -4 4 -10z m40 -20 c0 -5 -7 -10 -16 -10 -8 0
-12 5 -9 10 3 6 10 10 16 10 5 0 9 -4 9 -10z"/>
<path d="M744 4484 c-74 -74 -234 -268 -234 -283 0 -5 14 -25 30 -46 17 -21
30 -42 30 -46 0 -5 6 -9 14 -9 8 0 16 -17 19 -45 8 -54 1 -75 -23 -75 -25 0
-34 16 -14 24 8 3 12 11 9 17 -5 6 -11 4 -20 -7 -14 -20 -45 -13 -45 11 0 12
-5 15 -22 9 -13 -4 -31 -7 -40 -6 -12 0 -18 -6 -18 -19 0 -12 -5 -19 -11 -17
-6 2 -10 7 -10 11 1 4 1 16 1 27 0 16 7 20 32 20 24 0 29 3 21 11 -13 13 -6
39 15 57 11 8 13 15 5 23 -7 7 -21 -6 -45 -43 -373 -568 -511 -1229 -397
-1900 70 -414 250 -821 516 -1171 105 -138 342 -373 483 -479 470 -354 1006
-538 1577 -542 156 -1 197 4 180 20 -3 3 -25 8 -49 11 -24 3 -49 10 -56 16 -6
5 -26 7 -42 4 -25 -5 -33 -2 -47 19 -11 18 -22 24 -37 20 -12 -3 -28 -1 -36 4
-10 6 -18 3 -28 -11 -15 -22 -60 -25 -131 -8 -31 7 -46 7 -51 -1 -4 -7 -16 -7
-36 -1 -16 6 -51 12 -79 15 -27 2 -65 12 -84 21 -26 14 -35 15 -41 5 -6 -10
-15 -8 -38 9 -17 11 -35 21 -41 21 -6 0 -11 5 -11 10 0 6 22 10 50 10 44 0
115 12 160 28 19 6 30 9 54 10 11 1 16 5 12 9 -3 4 5 12 19 17 13 6 21 15 17
21 -12 17 -92 57 -92 46 0 -6 -4 -11 -10 -11 -5 0 -9 5 -7 12 1 7 -15 13 -43
15 -31 3 -52 11 -67 28 -12 13 -37 26 -55 30 -129 25 -210 49 -221 65 -7 10
-21 20 -32 22 -11 1 -27 10 -37 18 -10 8 -30 15 -45 16 -16 1 -29 3 -30 4 -2
1 -9 3 -15 4 -7 0 -14 11 -16 24 -7 44 -152 156 -152 116 0 -11 -5 -11 -25 -2
-13 6 -22 14 -20 19 7 11 -36 39 -60 39 -26 0 -52 29 -47 53 2 12 9 16 21 12
10 -3 24 1 31 10 11 14 15 14 29 1 22 -20 61 -10 61 15 0 14 -7 19 -30 19 -20
0 -30 5 -30 15 0 8 -7 15 -15 15 -8 0 -15 6 -15 13 0 6 -18 21 -40 31 -22 11
-40 25 -40 33 0 7 -6 13 -13 13 -17 0 -59 44 -50 53 3 4 -1 7 -10 7 -10 0 -17
7 -17 15 0 8 -13 21 -30 30 -20 10 -30 23 -30 38 0 12 4 17 8 11 4 -5 22 -16
39 -23 18 -7 45 -24 60 -37 16 -13 38 -24 50 -24 12 0 27 -9 33 -20 8 -15 8
-20 -1 -20 -7 0 -10 -3 -6 -6 10 -10 47 7 47 22 0 8 4 14 10 14 5 0 -10 21
-35 46 -25 25 -45 51 -45 59 0 7 -15 17 -32 21 -25 5 -29 8 -15 13 15 5 13 9
-13 24 -16 10 -35 27 -41 39 -9 17 -13 18 -21 7 -7 -10 -8 -4 -4 18 3 18 1 35
-4 38 -6 3 -10 14 -10 24 0 10 -11 30 -25 45 -14 15 -25 32 -25 39 0 9 -2 9
-8 0 -6 -10 -15 -10 -40 -1 -25 10 -37 10 -51 1 -10 -6 -28 -9 -40 -6 -13 3
-21 1 -21 -7 0 -8 -9 -10 -25 -6 -18 5 -27 2 -31 -9 -4 -8 -16 -15 -28 -15
-17 0 -18 -2 -6 -10 22 -14 -12 -24 -48 -14 -31 8 -41 10 -63 12 -17 2 -63 42
-56 49 3 2 16 0 29 -7 21 -10 21 -10 6 3 -10 8 -18 19 -18 24 0 6 -7 16 -15
23 -10 9 -15 9 -15 1 0 -6 5 -11 10 -11 6 0 10 -4 10 -10 0 -22 -20 -8 -26 18
-12 54 -16 62 -25 56 -15 -9 -37 15 -32 34 6 26 -50 72 -87 72 -16 0 -30 -4
-30 -10 0 -5 -4 -10 -9 -10 -5 0 -8 11 -7 25 0 15 7 25 16 25 9 0 21 5 27 11
8 8 17 8 31 0 11 -6 33 -11 47 -11 24 0 26 -3 21 -25 -5 -19 -3 -23 9 -19 8 4
22 1 30 -6 12 -10 15 -9 15 4 0 9 -6 16 -14 16 -20 0 -27 58 -7 63 13 4 13 5
-1 6 -10 0 -18 8 -18 16 0 9 6 12 16 8 13 -5 15 0 12 23 -1 16 -10 35 -18 42
-12 11 -12 14 -2 19 10 4 10 9 -3 22 -8 10 -14 29 -13 42 2 19 -1 23 -17 21
-19 -3 -19 -3 -1 10 17 13 17 15 1 31 -9 9 -21 17 -26 17 -15 0 -10 22 10 39
20 18 21 51 3 74 -7 8 -9 22 -6 32 6 14 3 16 -14 11 -17 -6 -20 -3 -18 19 3
22 1 23 -12 13 -10 -8 -13 -8 -9 -2 4 7 0 17 -8 24 -8 7 -15 9 -15 4 0 -5 -5
-2 -10 6 -8 12 -12 12 -18 2 -22 -33 -119 30 -109 70 3 11 0 18 -9 18 -8 0
-14 6 -14 13 0 8 -9 22 -20 32 -11 10 -20 24 -20 32 0 7 -8 13 -17 14 -11 0
-13 3 -5 6 6 2 12 9 12 14 0 6 -8 5 -20 -1 -20 -11 -40 -6 -40 9 0 5 16 21 35
35 30 23 40 26 67 18 39 -11 89 3 82 22 -3 9 12 22 41 36 43 21 55 22 148 15
56 -4 110 -11 121 -17 14 -8 25 -5 45 11 37 30 164 90 176 83 28 -17 287 -19
330 -2 29 11 29 12 10 25 -11 8 -25 19 -32 25 -7 5 -16 10 -21 10 -4 0 -6 16
-4 35 2 19 0 35 -6 35 -12 0 -53 80 -47 91 3 4 -7 10 -20 13 -24 6 -25 8 -10
29 23 32 19 98 -6 126 l-22 23 24 -7 c21 -7 22 -7 6 9 -13 13 -28 15 -69 11
-52 -5 -53 -5 -31 13 l21 19 -23 17 c-26 19 -24 61 3 51 8 -3 24 6 38 20 15
16 29 23 37 18 6 -4 21 -6 31 -4 11 1 28 -8 41 -25 15 -19 27 -25 39 -21 10 4
15 11 12 16 -3 5 3 7 15 4 19 -5 21 -3 14 28 -4 19 -10 38 -12 43 -3 4 -6 26
-7 47 -2 31 0 36 11 27 10 -8 13 -6 13 6 0 9 -5 16 -11 16 -5 0 -7 5 -4 10 3
6 2 10 -3 10 -4 0 -14 16 -22 35 -8 19 -20 35 -28 35 -11 0 -12 3 -3 13 6 8 8
17 4 20 -10 11 17 8 39 -4 20 -11 20 -9 13 27 -4 22 -12 45 -18 53 -6 7 -16
22 -22 34 -12 25 -35 34 -35 14 0 -9 -18 2 -45 29 -25 24 -55 44 -66 44 -11 0
-18 4 -14 9 3 6 -14 19 -38 29 -25 11 -48 25 -51 31 -9 14 -77 43 -84 36 -3
-2 0 -10 6 -17 16 -20 26 -89 14 -97 -21 -13 5 -32 48 -36 24 -3 46 -9 50 -15
5 -9 35 -17 68 -19 6 -1 12 -13 12 -27 0 -20 4 -25 16 -20 9 3 20 6 26 6 6 0
8 9 5 20 -3 11 -1 20 4 20 5 0 14 -20 21 -45 7 -25 16 -45 20 -45 13 0 9 -27
-7 -40 -9 -7 -13 -24 -11 -43 4 -38 -14 -98 -27 -90 -6 4 -8 -2 -5 -15 4 -16
2 -22 -9 -22 -13 0 -13 -2 -2 -17 13 -15 12 -15 -8 -5 -26 14 -66 17 -45 3 11
-7 10 -10 -3 -15 -23 -8 -27 -8 -20 4 4 6 -6 10 -24 10 -16 0 -33 -4 -36 -10
-3 -5 1 -10 9 -10 9 0 16 -6 16 -14 0 -20 -17 -29 -23 -14 -2 7 -8 10 -12 5
-5 -4 1 -17 13 -30 16 -17 18 -26 10 -41 -6 -10 -8 -35 -4 -55 3 -23 2 -31 -4
-22 -7 12 -11 12 -24 2 -14 -11 -16 -11 -16 3 0 10 -3 15 -7 13 -12 -7 -55 12
-49 22 7 10 -22 71 -33 71 -4 0 -8 6 -9 13 -1 18 -32 101 -42 110 -9 10 -50
-22 -50 -39 0 -6 -7 -17 -15 -24 -20 -17 -19 -31 2 -23 14 6 15 4 5 -8 -7 -8
-22 -29 -32 -46 -21 -36 -49 -48 -30 -14 16 30 12 44 -10 38 -22 -6 -37 8 -20
18 6 4 8 15 5 26 -6 18 3 24 30 20 6 -1 2 5 -9 13 -17 14 -14 42 4 31 17 -10
40 8 40 32 0 20 4 24 19 20 22 -5 47 33 38 57 -8 21 2 46 18 46 9 0 13 12 12
35 -2 26 -6 35 -17 32 -8 -1 -14 -11 -14 -20 1 -10 -9 -29 -22 -42 -13 -13
-24 -31 -24 -40 0 -8 -7 -15 -15 -15 -8 0 -15 5 -15 11 0 6 -7 9 -15 5 -8 -3
-16 0 -16 7 -1 7 -2 21 -3 32 -1 11 -6 29 -11 39 -6 13 -3 22 8 31 10 7 17 17
17 24 0 6 5 11 11 11 8 0 8 4 0 14 -7 8 -13 28 -13 45 -1 26 -3 29 -20 20 -14
-7 -20 -6 -24 5 -3 8 -3 20 1 25 3 6 -19 36 -50 67 -36 37 -55 65 -55 80 0 31
3 40 13 37 4 -2 7 1 7 6 0 5 -6 11 -12 14 -10 3 -10 7 -1 19 7 8 10 18 6 21
-3 4 2 9 11 13 17 7 22 34 6 34 -5 0 -10 7 -10 15 0 17 17 20 22 4 2 -6 14 -8
29 -4 21 5 25 11 21 32 -4 23 -3 24 17 11 18 -11 23 -11 31 2 14 22 12 33 -5
27 -8 -4 -17 -2 -20 3 -4 6 1 10 9 10 9 0 16 5 16 10 0 23 30 8 36 -17 4 -16
16 -35 27 -44 12 -10 17 -21 12 -29 -6 -10 -10 -9 -17 4 -10 18 -28 12 -28
-10 0 -8 7 -14 15 -14 8 0 15 -4 15 -10 0 -5 -9 -10 -19 -10 -22 0 -51 -25
-50 -43 0 -9 2 -9 5 -1 6 14 77 0 109 -20 11 -7 33 -16 48 -20 15 -3 25 -11
22 -16 -3 -5 -1 -11 5 -15 5 -3 10 -18 10 -32 0 -15 2 -24 5 -22 7 8 8 73 0
92 -4 10 -3 17 4 17 6 0 11 -6 11 -14 0 -7 9 -16 20 -19 11 -3 20 -1 20 4 0 5
8 9 18 8 14 0 13 -3 -5 -16 -13 -8 -23 -23 -22 -32 0 -10 2 -11 6 -3 6 14 43
16 43 2 0 -5 9 -10 20 -10 11 0 20 -6 20 -12 0 -10 2 -10 9 0 6 10 13 11 34 1
24 -11 29 -10 47 11 23 26 25 50 8 69 -11 11 -10 13 4 8 10 -3 21 -1 24 5 4 7
9 70 10 141 1 72 -1 124 -6 118 -5 -9 -9 -8 -14 4 -9 26 -7 42 4 25 6 -9 10
-10 10 -3 0 6 -6 18 -14 25 -7 8 -17 24 -20 36 -4 12 -12 20 -17 17 -5 -4 -12
1 -15 10 -6 15 -8 26 -13 73 0 6 -8 12 -16 12 -8 0 -15 8 -15 19 0 10 -6 24
-14 31 -8 6 -13 17 -10 23 2 7 -8 13 -27 14 -41 3 -59 19 -59 52 1 22 2 23 11
9 5 -10 16 -15 25 -11 13 5 13 7 2 14 -11 7 -11 9 0 9 10 0 10 3 -2 15 -17 18
-30 20 -20 3 4 -7 3 -8 -5 -4 -6 4 -9 12 -6 17 4 5 1 9 -4 9 -6 0 -11 7 -11
15 0 8 -5 15 -11 15 -5 0 -7 5 -4 10 3 6 -3 10 -15 10 -12 0 -18 5 -15 10 3 6
1 10 -5 10 -6 0 -9 4 -6 9 3 5 -1 14 -9 21 -8 7 -15 18 -15 25 0 7 -9 15 -21
18 -15 4 -38 -12 -95 -69z m161 -54 c3 -5 -3 -10 -15 -10 -12 0 -18 5 -15 10
3 6 10 10 15 10 5 0 12 -4 15 -10z m30 -50 c3 -5 1 -10 -4 -10 -6 0 -11 5 -11
10 0 6 2 10 4 10 3 0 8 -4 11 -10z m-70 -40 c3 -5 1 -10 -4 -10 -6 0 -11 5
-11 10 0 6 2 10 4 10 3 0 8 -4 11 -10z m95 -70 c0 -5 -7 -10 -15 -10 -8 0 -15
5 -15 10 0 6 7 10 15 10 8 0 15 -4 15 -10z m-405 -370 c3 -5 1 -10 -4 -10 -6
0 -11 5 -11 10 0 6 2 10 4 10 3 0 8 -4 11 -10z m415 -110 c-20 -13 -33 -13
-25 0 3 6 14 10 23 10 15 0 15 -2 2 -10z m237 -657 c2 -5 -8 -18 -22 -27 -31
-20 -32 -14 -2 15 12 12 16 19 10 15 -7 -4 -13 -2 -13 4 0 14 22 8 27 -7z
m-60 -30 c-9 -9 -58 -13 -53 -5 3 5 17 10 31 10 14 0 24 -2 22 -5z m-347 -250
c3 -3 -1 -8 -7 -10 -7 -3 -13 -11 -13 -19 0 -9 4 -13 9 -10 5 3 11 -3 14 -13
4 -17 2 -18 -19 -9 -16 8 -23 17 -19 28 3 11 -1 20 -10 24 -27 10 -17 29 12
21 16 -4 30 -9 33 -12z m-268 -1205 c-7 -7 -12 -8 -12 -2 0 14 12 26 19 19 2
-3 -1 -11 -7 -17z m83 -148 c-3 -5 -10 -10 -16 -10 -5 0 -9 5 -9 10 0 6 7 10
16 10 8 0 12 -4 9 -10z m755 -705 c0 -9 -6 -12 -16 -8 -13 5 -13 7 -2 14 17
11 18 11 18 -6z m-79 -19 c10 6 25 -23 16 -32 -10 -10 -48 36 -40 49 5 8 9 7
11 -6 2 -9 8 -15 13 -11z m266 -192 c-3 -4 -14 -3 -24 0 -15 6 -15 8 -3 16 16
10 39 -4 27 -16z"/>
<path d="M2428 4543 c7 -3 16 -2 19 1 4 3 -2 6 -13 5 -11 0 -14 -3 -6 -6z"/>
<path d="M887 4533 c-13 -12 -7 -23 11 -22 10 0 12 3 4 6 -6 2 -10 9 -6 14 6
10 0 12 -9 2z"/>
<path d="M2490 4500 c0 -5 5 -10 10 -10 6 0 10 5 10 10 0 6 -4 10 -10 10 -5 0
-10 -4 -10 -10z"/>
<path d="M2583 4418 c-18 -6 -33 -15 -33 -19 0 -9 47 8 65 23 11 9 10 9 -32
-4z"/>
<path d="M2118 4413 c6 -2 18 -2 25 0 6 3 1 5 -13 5 -14 0 -19 -2 -12 -5z"/>
<path d="M3177 4397 c-18 -18 -18 -19 4 -12 18 6 21 4 16 -9 -4 -11 -3 -15 4
-11 5 4 8 12 6 18 -2 7 5 17 17 24 20 11 20 11 -4 10 -14 -1 -33 -10 -43 -20z"/>
<path d="M3140 4399 c0 -5 5 -7 10 -4 6 3 10 8 10 11 0 2 -4 4 -10 4 -5 0 -10
-5 -10 -11z"/>
<path d="M2148 4393 c7 -3 16 -2 19 1 4 3 -2 6 -13 5 -11 0 -14 -3 -6 -6z"/>
<path d="M1385 4376 c11 -8 24 -12 30 -8 5 3 3 -3 -5 -13 -14 -17 -14 -18 8
-6 19 10 21 15 11 27 -6 8 -23 14 -37 14 -25 0 -25 -1 -7 -14z"/>
<path d="M4389 4341 c-7 -25 -18 -41 -28 -42 -14 0 -14 -1 -1 -6 8 -3 24 -15
35 -27 18 -18 20 -19 23 -3 2 9 11 17 20 17 15 1 15 2 0 11 -10 5 -18 17 -18
25 0 8 5 12 10 9 16 -10 12 5 -9 32 l-20 24 -12 -40z"/>
<path d="M3163 4347 c12 -13 24 -22 26 -20 6 4 -30 43 -40 43 -5 0 2 -10 14
-23z"/>
<path d="M3475 4360 c-3 -5 -1 -10 4 -10 6 0 11 5 11 10 0 6 -2 10 -4 10 -3 0
-8 -4 -11 -10z"/>
<path d="M2820 4331 c0 -6 4 -13 10 -16 6 -3 7 1 4 9 -7 18 -14 21 -14 7z"/>
<path d="M3110 4326 c0 -21 29 -41 41 -29 8 8 6 11 -6 10 -10 -1 -20 4 -22 11
-3 8 1 10 13 5 12 -4 15 -3 10 5 -10 17 -36 15 -36 -2z"/>
<path d="M1015 4320 c-3 -6 1 -7 9 -4 18 7 21 14 7 14 -6 0 -13 -4 -16 -10z"/>
<path d="M2745 4319 c-4 -6 -5 -12 -2 -15 2 -3 7 2 10 11 7 17 1 20 -8 4z"/>
<path d="M3702 4290 c0 -14 2 -19 5 -12 2 6 2 18 0 25 -3 6 -5 1 -5 -13z"/>
<path d="M1480 4285 c0 -8 4 -15 10 -15 5 0 7 7 4 15 -4 8 -8 15 -10 15 -2 0
-4 -7 -4 -15z"/>
<path d="M3440 4289 c0 -5 5 -7 10 -4 6 3 10 8 10 11 0 2 -4 4 -10 4 -5 0 -10
-5 -10 -11z"/>
<path d="M3579 4279 c-23 -23 -9 -42 25 -33 23 5 46 30 46 49 0 12 -56 0 -71
-16z"/>
<path d="M2657 4277 c5 -8 63 -6 63 3 0 4 -15 6 -34 6 -19 -1 -32 -4 -29 -9z"/>
<path d="M2848 4283 c7 -3 16 -2 19 1 4 3 -2 6 -13 5 -11 0 -14 -3 -6 -6z"/>
<path d="M3450 4260 c-12 -8 -12 -10 5 -10 l20 -1 -20 -16 c-18 -14 -18 -15
-2 -9 10 3 30 6 43 6 22 0 23 2 12 20 -14 22 -34 25 -58 10z"/>
<path d="M3527 4249 c6 -22 20 -26 20 -4 0 8 -6 16 -13 19 -7 3 -10 -2 -7 -15z"/>
<path d="M3343 4220 c-13 -5 -23 -12 -23 -15 0 -9 16 -5 36 10 22 16 19 18
-13 5z"/>
<path d="M4412 4119 c2 -7 10 -15 17 -17 8 -3 12 1 9 9 -2 7 -10 15 -17 17 -8
3 -12 -1 -9 -9z"/>
<path d="M3523 4113 c-7 -2 -13 -11 -13 -18 0 -8 -7 -18 -16 -23 -28 -16 3
-25 33 -10 44 21 39 69 -4 51z"/>
<path d="M483 4096 c4 -10 7 -24 7 -32 0 -8 5 -14 11 -14 15 0 6 53 -10 58
-10 3 -12 0 -8 -12z"/>
<path d="M1340 4101 c0 -6 7 -11 15 -11 8 0 15 -4 15 -10 0 -5 -6 -8 -12 -6
-7 3 -28 7 -46 10 l-32 6 5 -64 c2 -35 7 -72 11 -82 13 -42 39 -84 51 -84 7 0
13 -4 13 -9 0 -5 7 -17 16 -26 13 -13 14 -18 3 -32 -12 -14 -14 -13 -19 8 -6
24 -6 24 -12 -3 -3 -15 -2 -26 2 -23 3 2 14 -5 23 -16 9 -10 25 -19 34 -19 27
-1 49 -21 57 -52 3 -16 11 -28 17 -28 6 0 8 7 5 17 -6 15 -4 15 14 -2 11 -10
20 -23 20 -29 0 -6 -5 -4 -10 4 -8 13 -11 13 -19 1 -5 -8 -14 -10 -21 -6 -8 5
-11 4 -6 -3 7 -12 44 -10 65 3 10 5 12 4 7 -3 -5 -8 0 -12 13 -12 11 0 27 -10
35 -22 9 -12 26 -23 38 -23 29 -2 80 -15 93 -25 6 -4 22 -10 38 -14 18 -4 27
-13 27 -26 0 -11 2 -20 3 -20 9 0 67 32 72 40 9 15 -18 60 -37 60 -20 0 -25
16 -5 23 9 3 8 8 -3 22 -14 16 -13 17 7 11 16 -5 23 -2 26 11 4 17 5 17 6 -1
1 -12 6 -16 17 -12 9 3 25 0 36 -8 11 -8 27 -12 34 -9 8 3 14 0 14 -6 0 -6 -4
-11 -10 -11 -5 0 6 -16 26 -35 26 -27 43 -35 69 -35 19 0 35 -4 35 -10 0 -5 6
-10 14 -10 17 0 42 -63 26 -68 -12 -4 -12 -65 0 -102 4 -14 9 -23 9 -20 14 49
48 131 54 129 5 -2 13 4 19 15 8 15 12 16 19 5 5 -8 9 -26 9 -41 0 -32 11 -36
31 -12 11 14 10 19 -9 34 -12 10 -22 27 -22 38 0 11 -7 38 -15 62 -8 23 -15
51 -15 63 -2 78 -14 137 -31 156 -10 11 -19 24 -19 28 0 8 -65 53 -76 53 -3 0
-29 12 -58 26 -42 22 -66 27 -143 29 -52 1 -93 -2 -93 -7 0 -5 -6 -5 -16 0 -9
5 -24 7 -33 5 -12 -3 -16 4 -18 23 0 15 -9 32 -19 37 -25 14 -74 66 -74 78 0
7 13 9 32 7 28 -4 29 -4 13 8 -11 8 -24 10 -33 5 -8 -5 -22 -6 -32 -4 -9 2
-22 -3 -29 -11 -17 -20 -31 -20 -31 0 0 8 -5 12 -11 8 -6 -3 -15 -1 -19 6 -5
9 -9 9 -14 1 -4 -6 -2 -11 4 -11 6 0 8 -4 5 -10 -3 -5 -11 -10 -16 -10 -6 0
-8 4 -4 9 3 5 1 12 -5 16 -6 4 -8 10 -5 15 3 4 -5 10 -17 13 -12 4 -25 1 -29
-5 -7 -10 -24 -9 -61 7 -11 4 -18 3 -18 -4z m590 -302 c0 -6 9 -8 20 -4 14 4
20 2 20 -8 0 -32 37 -62 77 -62 34 0 38 -3 41 -28 5 -41 -12 -55 -70 -59 -48
-3 -52 -1 -76 30 -28 36 -45 142 -23 142 6 0 11 -5 11 -11z"/>
<path d="M1608 4103 c7 -3 16 -2 19 1 4 3 -2 6 -13 5 -11 0 -14 -3 -6 -6z"/>
<path d="M3465 4040 c3 -5 8 -10 11 -10 2 0 4 5 4 10 0 6 -5 10 -11 10 -5 0
-7 -4 -4 -10z"/>
<path d="M3415 4024 c-16 -7 -23 -13 -15 -14 11 0 11 -3 2 -12 -10 -10 -15
-10 -21 0 -11 18 -20 -16 -11 -42 5 -16 7 -15 18 8 6 14 18 26 27 26 8 0 15 6
15 14 0 8 6 16 13 19 6 2 10 6 7 9 -3 3 -18 -1 -35 -8z"/>
<path d="M4155 4020 c-12 -20 6 -50 31 -50 29 0 31 20 6 43 -21 20 -28 21 -37
7z"/>
<path d="M2236 3943 c-12 -12 -6 -72 12 -115 10 -24 16 -51 14 -60 -5 -26 10
-21 37 13 23 30 23 31 6 74 -9 25 -23 45 -31 45 -8 0 -14 9 -14 19 0 21 -13
34 -24 24z"/>
<path d="M3256 3876 c5 -12 2 -15 -10 -10 -12 4 -16 0 -16 -15 0 -23 -15 -29
-23 -8 -3 6 -2 -8 0 -33 6 -53 24 -96 38 -92 6 2 10 12 9 22 0 11 3 20 8 20 4
0 8 18 8 39 0 22 5 43 10 46 6 3 10 13 10 22 0 9 -3 13 -7 10 -3 -4 -12 -2
-20 5 -11 8 -12 7 -7 -6z"/>
<path d="M4172 3866 c4 -5 0 -15 -10 -22 -18 -14 -8 -17 21 -5 18 7 18 7 0 21
-10 8 -15 10 -11 6z"/>
<path d="M2820 3837 c14 -14 28 -22 33 -20 4 2 7 -3 7 -11 0 -9 5 -16 10 -16
6 0 10 2 10 4 0 11 -46 53 -65 60 -17 6 -16 3 5 -17z"/>
<path d="M2688 3822 c2 -7 -1 -12 -8 -10 -7 2 -15 -3 -17 -10 -4 -10 5 -8 28
5 19 10 43 21 54 24 12 4 4 6 -21 5 -29 -1 -40 -5 -36 -14z"/>
<path d="M3292 3805 c3 -47 18 -57 18 -11 0 19 -5 38 -10 41 -7 4 -10 -7 -8
-30z"/>
<path d="M4210 3809 c0 -5 5 -7 10 -4 6 3 10 8 10 11 0 2 -4 4 -10 4 -5 0 -10
-5 -10 -11z"/>
<path d="M2616 3731 c-10 -11 -16 -25 -15 -30 2 -6 12 3 21 19 20 35 18 38 -6
11z"/>
<path d="M2795 3730 c-3 -5 -1 -10 4 -10 6 0 11 5 11 10 0 6 -2 10 -4 10 -3 0
-8 -4 -11 -10z"/>
<path d="M3190 3717 c0 -10 8 -17 18 -17 9 0 13 4 7 8 -5 4 -13 11 -17 16 -5
5 -8 2 -8 -7z"/>
<path d="M2561 3600 c-7 -30 -27 -100 -43 -155 -16 -55 -31 -107 -32 -115 -2
-8 -24 -64 -48 -125 -30 -74 -42 -118 -38 -135 4 -15 9 -20 13 -13 4 6 4 19 0
30 -6 16 -5 16 10 4 15 -12 17 -10 18 25 0 30 2 34 8 19 9 -22 8 -24 30 110
12 73 21 105 30 105 10 0 38 89 40 125 1 38 7 69 21 111 7 19 10 42 8 51 -2
10 -9 -7 -17 -37z"/>
<path d="M2935 3586 c3 -11 10 -38 15 -61 5 -23 14 -54 19 -68 8 -20 7 -27 -5
-31 -12 -4 -13 -10 -4 -26 6 -11 8 -26 5 -33 -4 -6 0 -4 8 6 19 23 34 22 42
-3 4 -11 11 -17 17 -14 8 5 9 1 5 -10 -5 -11 -3 -15 5 -10 7 5 9 2 5 -9 -4
-11 -2 -14 8 -10 8 3 18 -2 21 -11 3 -9 10 -16 15 -16 8 0 -79 113 -100 130
-3 3 -8 12 -9 20 -15 66 -36 138 -44 150 -7 12 -8 11 -3 -4z"/>
<path d="M2611 3524 c0 -11 3 -14 6 -6 3 7 2 16 -1 19 -3 4 -6 -2 -5 -13z"/>
<path d="M2724 3522 c0 -12 5 -18 13 -15 7 3 13 10 13 15 0 6 7 5 15 -2 9 -7
18 -10 22 -6 9 9 0 15 -33 22 -25 5 -30 2 -30 -14z"/>
<path d="M1917 3506 c-11 -9 -15 -20 -11 -31 5 -13 9 -14 15 -3 7 10 9 9 9 -5
0 -10 5 -15 10 -12 6 3 10 1 10 -4 0 -6 20 -11 46 -11 38 0 44 3 35 13 -6 8
-8 17 -4 20 3 4 -1 7 -10 7 -9 0 -31 9 -49 19 -28 17 -36 18 -51 7z m38 -26
c3 -5 1 -10 -4 -10 -6 0 -11 5 -11 10 0 6 2 10 4 10 3 0 8 -4 11 -10z"/>
<path d="M2593 3437 c-3 -6 -1 -7 5 -3 6 3 15 -2 21 -11 9 -16 10 -16 8 3 -1
21 -23 28 -34 11z"/>
<path d="M1987 3414 c-9 -9 19 -34 37 -34 22 0 20 20 -1 21 -15 0 -15 2 2 9
18 8 18 9 -6 9 -14 1 -28 -2 -32 -5z"/>
<path d="M2600 3395 c6 -16 6 -25 0 -25 -6 0 -10 8 -11 18 0 9 -6 -1 -14 -23
-7 -22 -13 -33 -14 -25 -1 8 -8 2 -16 -14 -9 -16 -13 -36 -11 -43 3 -7 1 -13
-5 -13 -6 0 -7 -5 -4 -10 8 -13 36 7 34 24 -3 22 26 76 37 72 7 -3 15 1 17 9
7 17 -3 55 -14 55 -5 0 -4 -11 1 -25z"/>
<path d="M2732 3399 c-12 -19 -11 -19 8 -9 11 6 20 15 20 20 0 17 -15 11 -28
-11z"/>
<path d="M2775 3399 c7 -11 35 -12 35 -1 0 4 -9 8 -20 9 -11 1 -18 -2 -15 -8z"/>
<path d="M2825 3400 c-3 -5 -1 -10 4 -10 6 0 11 5 11 10 0 6 -2 10 -4 10 -3 0
-8 -4 -11 -10z"/>
<path d="M2853 3374 c0 -15 6 -25 16 -26 9 0 -4 -4 -29 -8 l-45 -7 40 -1 c58
-2 68 8 40 40 l-22 26 0 -24z"/>
<path d="M2925 3380 c3 -5 8 -10 11 -10 2 0 4 5 4 10 0 6 -5 10 -11 10 -5 0
-7 -4 -4 -10z"/>
<path d="M2060 3369 c-24 -7 -24 -7 -2 -8 14 -1 22 -7 22 -18 0 -12 3 -14 11
-6 19 19 -2 40 -31 32z"/>
<path d="M2780 3366 c0 -8 51 -13 56 -5 3 5 -9 9 -25 9 -17 0 -31 -2 -31 -4z"/>
<path d="M2930 3349 c0 -7 -8 -18 -17 -25 -17 -12 -16 -13 6 -14 21 0 23 -3
17 -31 -5 -25 -3 -30 9 -25 8 3 15 1 15 -3 0 -5 6 -11 13 -14 11 -4 14 7 13
44 -1 36 -4 48 -14 44 -7 -3 -10 -1 -7 5 3 5 -4 14 -15 20 -15 8 -20 8 -20 -1z"/>
<path d="M1493 3299 c-28 -10 -29 -17 -2 -45 17 -18 24 -20 43 -11 l23 11 -21
19 c-17 15 -18 18 -3 13 9 -3 17 -3 17 -1 0 12 -38 22 -57 14z m21 -14 c-4 -8
-11 -15 -16 -15 -6 0 -5 6 2 15 7 8 14 15 16 15 2 0 1 -7 -2 -15z"/>
<path d="M2890 3290 c0 -5 5 -10 10 -10 6 0 10 5 10 10 0 6 -4 10 -10 10 -5 0
-10 -4 -10 -10z"/>
<path d="M2672 3250 c0 -19 2 -27 5 -17 2 9 2 25 0 35 -3 9 -5 1 -5 -18z"/>
<path d="M2692 3255 c0 -16 2 -22 5 -12 2 9 2 23 0 30 -3 6 -5 -1 -5 -18z"/>
<path d="M2830 3270 c0 -5 7 -10 15 -10 8 0 15 5 15 10 0 6 -7 10 -15 10 -8 0
-15 -4 -15 -10z"/>
<path d="M3075 3270 c3 -5 8 -10 11 -10 2 0 4 5 4 10 0 6 -5 10 -11 10 -5 0
-7 -4 -4 -10z"/>
<path d="M2857 3256 c-13 -10 -15 -15 -5 -18 7 -3 18 1 25 8 26 25 10 33 -20
10z"/>
<path d="M2245 3250 c-3 -5 -1 -10 4 -10 6 0 11 5 11 10 0 6 -2 10 -4 10 -3 0
-8 -4 -11 -10z"/>
<path d="M2711 3234 c0 -11 3 -14 6 -6 3 7 2 16 -1 19 -3 4 -6 -2 -5 -13z"/>
<path d="M1536 3224 c-4 -10 -1 -14 6 -12 15 5 23 28 10 28 -5 0 -13 -7 -16
-16z"/>
<path d="M2610 3213 c0 -12 -4 -25 -10 -28 -5 -3 -10 -10 -10 -16 0 -5 5 -9
10 -9 6 0 10 6 10 14 0 8 5 16 12 18 8 3 8 9 0 24 -11 18 -11 18 -12 -3z"/>
<path d="M2920 3189 c0 -5 5 -7 10 -4 6 3 10 8 10 11 0 2 -4 4 -10 4 -5 0 -10
-5 -10 -11z"/>
<path d="M1516 3153 c1 -21 7 -39 13 -41 6 -2 11 -19 11 -38 0 -24 5 -34 15
-34 8 0 15 -8 16 -17 0 -23 55 -67 64 -53 4 7 -2 14 -13 17 -22 5 -46 47 -57
101 -8 37 6 42 28 10 l16 -23 -2 30 c-3 47 -47 80 -47 35 0 -11 -7 -20 -15
-20 -10 0 -15 11 -15 35 0 19 -3 35 -8 35 -4 0 -7 -17 -6 -37z"/>
<path d="M2492 3170 c0 -8 4 -26 8 -40 6 -20 8 -21 8 -5 0 11 -3 29 -8 40 -5
12 -8 14 -8 5z"/>
<path d="M2700 3171 c0 -6 4 -13 10 -16 6 -3 7 1 4 9 -7 18 -14 21 -14 7z"/>
<path d="M2582 3130 c0 -14 2 -19 5 -12 2 6 2 18 0 25 -3 6 -5 1 -5 -13z"/>
<path d="M2528 3115 c-3 -14 -1 -28 3 -31 5 -3 9 9 9 25 0 38 -6 40 -12 6z"/>
<path d="M2611 3124 c0 -11 3 -14 6 -6 3 7 2 16 -1 19 -3 4 -6 -2 -5 -13z"/>
<path d="M3042 3080 c0 -14 2 -19 5 -12 2 6 2 18 0 25 -3 6 -5 1 -5 -13z"/>
<path d="M4040 2935 c-7 -8 -9 -15 -6 -15 4 0 14 7 22 15 9 8 11 15 6 15 -5 0
-15 -7 -22 -15z"/>
<path d="M1836 2689 c-4 -22 -12 -48 -18 -59 -9 -15 -9 -24 2 -44 14 -28 5
-51 -10 -26 -7 11 -12 12 -21 3 -13 -13 -4 -33 17 -33 8 0 14 -4 14 -9 0 -5 6
-11 14 -14 10 -4 14 5 14 34 1 22 8 46 16 55 9 8 16 26 16 40 0 13 5 24 10 24
6 0 10 7 10 16 0 10 -5 14 -16 10 -8 -3 -13 -2 -10 2 3 5 -3 16 -13 24 -18 15
-19 14 -25 -23z m34 -69 c0 -5 -5 -10 -11 -10 -5 0 -7 5 -4 10 3 6 8 10 11 10
2 0 4 -4 4 -10z"/>
<path d="M1885 2710 c-3 -5 -2 -10 4 -10 5 0 13 5 16 10 3 6 2 10 -4 10 -5 0
-13 -4 -16 -10z"/>
<path d="M2155 2690 c3 -5 8 -10 11 -10 2 0 4 5 4 10 0 6 -5 10 -11 10 -5 0
-7 -4 -4 -10z"/>
<path d="M2133 2672 c-7 -4 -9 -13 -4 -21 6 -9 10 -7 14 8 3 12 4 21 4 21 -1
0 -7 -4 -14 -8z"/>
<path d="M1980 2640 c-14 -10 -22 -21 -19 -24 3 -3 16 5 29 19 28 30 24 32
-10 5z"/>
<path d="M2025 2610 c-17 -18 -17 -20 -1 -20 9 0 15 4 12 9 -4 5 0 11 6 14 7
2 10 7 7 11 -3 3 -14 -3 -24 -14z"/>
<path d="M1770 2610 c0 -5 7 -10 16 -10 8 0 12 5 9 10 -3 6 -10 10 -16 10 -5
0 -9 -4 -9 -10z"/>
<path d="M1970 2570 c-9 -6 -10 -10 -3 -10 6 0 15 5 18 10 8 12 4 12 -15 0z"/>
<path d="M1861 2534 c0 -11 3 -14 6 -6 3 7 2 16 -1 19 -3 4 -6 -2 -5 -13z"/>
<path d="M1770 2495 c-10 -12 -10 -15 4 -15 9 0 16 7 16 15 0 8 -2 15 -4 15
-2 0 -9 -7 -16 -15z"/>
<path d="M1558 2453 c7 -3 16 -2 19 1 4 3 -2 6 -13 5 -11 0 -14 -3 -6 -6z"/>
<path d="M2112 2415 c0 -16 2 -22 5 -12 2 9 2 23 0 30 -3 6 -5 -1 -5 -18z"/>
<path d="M5012 2393 c2 -9 8 -18 15 -20 7 -3 9 3 6 16 -6 25 -26 28 -21 4z"/>
<path d="M1620 2385 c0 -8 7 -15 16 -15 14 0 14 3 4 15 -7 8 -14 15 -16 15 -2
0 -4 -7 -4 -15z"/>
<path d="M1628 2335 c-14 -19 -15 -24 -4 -28 9 -4 16 4 19 21 7 34 6 35 -15 7z"/>
<path d="M1777 2327 c-11 -29 -9 -43 4 -30 6 6 9 19 7 29 -3 18 -4 18 -11 1z"/>
<path d="M1785 2279 c-4 -6 -5 -12 -2 -15 2 -3 7 2 10 11 7 17 1 20 -8 4z"/>
<path d="M1730 2272 c0 -4 9 -8 20 -9 11 -1 18 2 15 8 -7 11 -35 12 -35 1z"/>
<path d="M5095 1770 c-10 -11 -15 -20 -11 -20 4 0 -1 -12 -12 -27 -24 -34 -38
-93 -23 -93 6 0 11 -15 11 -32 1 -28 6 -21 35 47 30 71 32 81 17 86 -16 6 -16
7 0 14 9 3 15 13 14 20 -4 25 -12 26 -31 5z"/>
<path d="M4965 1389 c-4 -6 -5 -12 -2 -15 2 -3 7 2 10 11 7 17 1 20 -8 4z"/>
<path d="M863 1343 c9 -9 20 -13 24 -9 4 4 1 11 -7 16 -25 16 -35 11 -17 -7z"/>
<path d="M4933 1342 c-3 -12 -10 -22 -15 -22 -14 0 -38 -27 -38 -42 0 -23 -83
-127 -102 -128 -9 0 -20 -4 -23 -10 -3 -5 -15 -10 -25 -10 -19 0 -23 -8 -35
-68 -4 -18 -13 -36 -21 -39 -8 -3 -14 -16 -14 -28 0 -15 -8 -26 -20 -30 -11
-3 -20 -15 -20 -26 0 -23 18 -25 26 -4 4 8 12 15 18 15 34 0 302 387 282 407
-4 4 -9 -3 -13 -15z"/>
<path d="M4507 983 c-16 -15 -6 -33 18 -33 27 0 32 9 13 28 -14 14 -22 15 -31
5z"/>
<path d="M4389 958 c-1 -17 -2 -19 -6 -5 -2 9 -9 17 -14 17 -14 0 -11 -16 5
-29 22 -18 62 4 45 25 -17 20 -29 17 -30 -8z"/>
<path d="M4517 896 c-23 -18 -22 -30 3 -23 11 3 22 1 25 -3 5 -8 -8 -12 -105
-26 -46 -7 -80 -30 -80 -54 0 -11 -9 -24 -21 -30 -16 -9 -19 -18 -15 -38 3
-15 3 -21 0 -15 -7 16 -63 -12 -113 -56 -19 -16 -40 -27 -48 -24 -8 3 -13 -2
-13 -16 0 -12 -9 -30 -20 -41 -11 -11 -15 -20 -10 -20 6 0 10 -4 10 -9 0 -9
-37 -24 -56 -22 -6 1 -17 -6 -24 -14 -17 -20 -40 -19 -40 3 -1 16 -1 16 -11
-1 -6 -10 -9 -23 -6 -30 6 -18 -74 -76 -114 -83 -25 -4 -41 -14 -50 -30 -7
-13 -21 -24 -31 -24 -10 0 -35 -8 -56 -19 -23 -12 -49 -17 -70 -14 -32 5 -67
-12 -57 -27 3 -4 -5 -8 -18 -8 -12 0 -35 -3 -52 -7 -16 -3 -40 -8 -52 -11 -12
-2 -29 -11 -38 -20 -12 -13 -19 -14 -30 -4 -11 10 -18 10 -29 1 -8 -6 -18 -11
-22 -9 -26 7 -51 -15 -61 -55 -7 -23 -15 -50 -18 -59 -10 -25 14 -23 126 10
269 81 545 219 785 391 108 77 311 255 350 307 43 56 13 118 -39 80z m-647
-526 c0 -5 -7 -10 -16 -10 -8 0 -12 5 -9 10 3 6 10 10 16 10 5 0 9 -4 9 -10z"/>
<path d="M3186 83 c-11 -11 -6 -23 8 -23 8 0 17 4 20 9 7 10 -19 23 -28 14z"/>
</g>
</svg>
